<?xml version="1.0" encoding="UTF-8"?>
<!DOCTYPE svg PUBLIC "-//W3C//DTD SVG 1.1//EN" "http://www.w3.org/Graphics/SVG/1.1/DTD/svg11.dtd">
<svg xmlns="http://www.w3.org/2000/svg" version="1.1" width="132px" height="58px" style="shape-rendering:geometricPrecision; text-rendering:geometricPrecision; image-rendering:optimizeQuality; fill-rule:evenodd; clip-rule:evenodd" xmlns:xlink="http://www.w3.org/1999/xlink">
<g><path style="opacity:0.901" fill="#1a6fbe" d="M 111.5,27.5 C 111.5,30.8333 111.5,34.1667 111.5,37.5C 108.142,44.8401 102.475,47.3401 94.5,45C 92.443,41.7002 91.443,41.8669 91.5,45.5C 87.9703,46.0111 84.8037,45.3444 82,43.5C 80.2298,45.4181 78.0631,45.9181 75.5,45C 74.9341,44.0053 74.2674,43.172 73.5,42.5C 73.8925,40.7162 74.5592,39.0495 75.5,37.5C 78.0444,37.1043 80.2111,37.771 82,39.5C 82.4998,29.5056 82.6665,19.5056 82.5,9.5C 85.5,9.5 88.5,9.5 91.5,9.5C 91.3342,14.1785 91.5008,18.8452 92,23.5C 96.1259,19.2409 100.959,18.4076 106.5,21C 108.55,22.9651 110.217,25.1318 111.5,27.5 Z M 95.5,26.5 C 101.962,27.8651 103.629,31.5317 100.5,37.5C 95.5337,40.5132 92.867,39.0132 92.5,33C 92.3912,30.2884 93.3912,28.1217 95.5,26.5 Z"/></g>
<g><path style="opacity:0.927" fill="#1a6fbe" d="M 28.5,25.5 C 27.1667,30.5 27.1667,35.5 28.5,40.5C 28.0042,51.3292 22.3375,56.6625 11.5,56.5C 3.67408,58.1658 0.840748,55.1658 3,47.5C 6.93309,49.4777 11.0998,49.9777 15.5,49C 17.8437,47.8149 18.6771,45.9815 18,43.5C 14.0669,45.4777 9.90024,45.9777 5.5,45C 2.97739,43.6403 0.977392,41.807 -0.5,39.5C -0.5,35.5 -0.5,31.5 -0.5,27.5C 4.17591,19.0873 10.6759,17.4206 19,22.5C 21.8037,20.6556 24.9703,19.9889 28.5,20.5C 28.5,22.1667 28.5,23.8333 28.5,25.5 Z M 11.5,26.5 C 17.5464,26.5727 19.7131,29.5727 18,35.5C 16.6949,38.3064 14.5282,39.1397 11.5,38C 7.80057,34.2249 7.80057,30.3916 11.5,26.5 Z"/></g>
<g><path style="opacity:0.975" fill="#f9bb19" d="M 53.5,22.5 C 55.0795,25.6592 56.0795,28.9925 56.5,32.5C 57.2447,38.8429 54.578,43.0096 48.5,45C 40.9621,46.7583 34.2954,45.2583 28.5,40.5C 27.1667,35.5 27.1667,30.5 28.5,25.5C 36.1082,18.7719 44.4415,17.7719 53.5,22.5 Z M 38.5,26.5 C 46.5052,25.3421 49.3385,28.6754 47,36.5C 43.6667,40.5 40.3333,40.5 37,36.5C 36.1529,32.9277 36.6529,29.5943 38.5,26.5 Z"/></g>
<g><path style="opacity:0.989" fill="#fabb19" d="M 111.5,37.5 C 111.5,34.1667 111.5,30.8333 111.5,27.5C 111.5,25.1667 111.5,22.8333 111.5,20.5C 115.03,19.9889 118.196,20.6556 121,22.5C 123.305,20.0695 126.138,19.0695 129.5,19.5C 129.5,22.1667 129.5,24.8333 129.5,27.5C 126.315,27.0196 123.481,27.6863 121,29.5C 120.501,34.8229 120.334,40.1563 120.5,45.5C 117.5,45.5 114.5,45.5 111.5,45.5C 111.5,42.8333 111.5,40.1667 111.5,37.5 Z"/></g>
<g><path style="opacity:0.903" fill="#30b342" d="M 75.5,37.5 C 74.5592,39.0495 73.8925,40.7162 73.5,42.5C 73.1961,43.1499 72.8627,43.8165 72.5,44.5C 68.8927,45.4892 65.226,45.8226 61.5,45.5C 60.4039,40.8677 58.7372,36.5344 56.5,32.5C 56.0795,28.9925 55.0795,25.6592 53.5,22.5C 53.3893,21.8826 53.056,21.3826 52.5,21C 55.8823,20.1764 59.2156,20.343 62.5,21.5C 64.0992,26.4647 65.5992,31.4647 67,36.5C 68.9794,31.6029 70.8127,26.6029 72.5,21.5C 75.4281,20.5159 78.4281,20.1826 81.5,20.5C 79.7857,26.263 77.7857,31.9297 75.5,37.5 Z"/></g>
</svg>
